<?xml version="1.0" encoding="utf-8"?>
<!-- Generator: Adobe Illustrator 23.0.3, SVG Export Plug-In . SVG Version: 6.00 Build 0)  -->
<svg version="1.1" id="Capa_1" xmlns="http://www.w3.org/2000/svg" xmlns:xlink="http://www.w3.org/1999/xlink" x="0px" y="0px"
	 viewBox="0 0 62.8 62.8" style="enable-background:new 0 0 62.8 62.8;" xml:space="preserve">
<style type="text/css">
	.st0{fill:#FFFFFF;}
</style>
<g>
	<path class="st0" d="M42.4,1.6c0-0.5-0.4-0.7-0.8-0.7c0-0.5-0.3-0.9-1-0.9c-4.1,0.2-8.2,0.6-12.2,1.2c-0.2,0-0.3,0.1-0.4,0.2
		c-0.1,0.1-0.3,0.2-0.3,0.5c-2.3,9.4-4.8,18.5-7.9,27.7c-0.1,0.3,0,0.6,0.3,0.7c0,0.1,0.1,0.2,0.3,0.3c1.8,1,3.8,1.7,5.7,2.5
		c0.7,0.3,1.2-0.1,1.4-0.5c0.1-0.1,0.1-0.1,0.2-0.3c0.8-2,1.6-4,2.4-6.1c0.1-0.2,0.1-0.3,0.2-0.5c-0.8,11.8-0.5,23.7,0.2,35.4
		c0.1,1.1,1.5,1.4,2,0.7c0.4,0.2,0.6,0.5,1,0.7c0.5,0.2,1.4,0.1,2,0.2c1.5,0.1,3.1,0.1,4.6,0.1c0.8,0,1.1-0.6,1.1-1.2
		c0.4-0.1,0.8-0.4,0.8-1C42.6,41.1,43.6,21.1,42.4,1.6z M32.1,21.5c2.6-0.2,5.3-0.4,7.9-0.6c0,1,0,2-0.1,3c-2.2,0-4.4,0.2-6.5,0.3
		c-0.3,0-0.3,0.4,0,0.4c2.1,0,4.3,0,6.5-0.1c0,0.8,0,1.5,0,2.3c-2.1,0-4.2,0.1-6.2,0.1c-0.2,0-0.2,0.4,0,0.4c2,0.1,4.2,0.2,6.2,0
		c0,0.5,0,1.1,0,1.6c-2.1,0.1-4.3,0.3-6.4,0.2c-0.3,0-0.3,0.4,0,0.4c2.1,0.1,4.3,0.1,6.4-0.1c0,0.8,0,1.6,0,2.4
		c-1.9,0.2-3.7,0.4-5.7,0.2c-0.3,0-0.3,0.4,0,0.5c1.8,0.2,3.8,0.2,5.7-0.1c0,0.9,0,1.8,0,2.7c-2,0.4-3.9,0.6-5.9,0.2
		c-0.3,0-0.4,0.4-0.1,0.4c2,0.4,4,0.4,6-0.2c0,0.7,0,1.3,0,2c-2.5,0.2-5,0.5-7.5,0.5C32.3,32.6,32.3,27,32.1,21.5z M32.4,38.5
		c2.5,0,5,0,7.5-0.4c0,0.7,0,1.5,0,2.2c-1.5,0.1-3,0.4-4.5,0.6c-0.2,0-0.2,0.4,0.1,0.4c1.5-0.2,3-0.2,4.4-0.5c0,0.8,0,1.7,0,2.5
		c-2.5,0.2-4.9,0.5-7.4,0.6C32.4,42.1,32.4,40.3,32.4,38.5z M32.5,44.3c2.4,0.2,5,0.1,7.4-0.3c0,0.6,0,1.3,0,1.9
		c-1.5,0-2.9,0.3-4.3,0.7c-0.2,0.1-0.1,0.3,0.1,0.3c1.4-0.4,2.8-0.5,4.2-0.6c0,0.8,0,1.5,0,2.3c-1.3,0.2-2.7,0.4-4,0.6
		c-0.2,0-0.2,0.4,0.1,0.4c1.3-0.2,2.7-0.3,4-0.5c0,0.8,0,1.6,0,2.3c-2.5,0.3-4.9,0.6-7.4,0.7C32.6,49.5,32.5,46.9,32.5,44.3z
		 M35.6,60.5c-0.6,0-1.4-0.1-2,0.2c-0.3,0.1-0.5,0.4-0.7,0.6c0,0,0-0.1,0-0.1c-0.1-2.9-0.2-5.7-0.3-8.6c2.4,0,4.9-0.1,7.4-0.5
		c0,0.5,0,1,0,1.5c-1.7,0.3-3.3,0.5-5,0.4c-0.2,0-0.2,0.4,0,0.4c1.6,0.1,3.4,0.1,5-0.2c0,0.7,0,1.5,0,2.2c-1.8,0.4-3.6,0.6-5.6,0.6
		c-0.2,0-0.2,0.3,0,0.3c1.8,0.1,3.8,0.1,5.6-0.3c0,1.2,0,2.5,0,3.7C38.6,60.4,37.1,60.5,35.6,60.5z M30.5,6.5
		c3.4-0.4,6.7-0.4,10.2-0.4c0,0.5-0.1,1-0.1,1.5c-2.5-0.1-5.1,0-7.6,0.1c-0.3,0-0.3,0.4,0,0.4c2.5,0,5,0.1,7.5,0.1
		c0,0.6-0.1,1.1-0.1,1.7c-2.7,0.1-5.5,0.3-8.2,0.4c-0.2,0-0.2,0.3,0,0.3c2.7,0,5.5,0,8.2-0.2c-0.1,1.7-0.2,3.4-0.2,5.1
		c-2.8,0.3-5.6,0.6-8.5,0.5c-0.3,0-0.2,0.4,0,0.4c2.8,0.2,5.7,0.2,8.5-0.4c0,0.9-0.1,1.8-0.1,2.6c-2.9,0-5.8,0.2-8.6,0.4
		c-0.3,0-0.3,0.4,0,0.4c2.8-0.1,5.8-0.1,8.6-0.3c0,0.5,0,0.9,0,1.4c-2.6,0.2-5.3,0.4-7.9,0.6c0-0.1,0-0.3,0-0.4
		c0-0.5-0.4-0.7-0.7-0.6c-0.2-0.1-0.5-0.1-0.7,0.1c-0.3,0.3-0.5,0.7-0.7,1c-1.3,0.1-2.7,0.2-4,0.3c-0.2,0-0.2,0.3,0,0.3
		c1.3-0.1,2.6-0.1,3.8-0.2c-0.5,1.2-0.9,2.5-1.2,3.7c-0.6,2-1.3,3.9-1.8,5.9c-1.8-0.6-3.7-1.2-5.5-1.7c3.5-8.6,6.4-17.6,8.1-26.8
		c3.8,0,7.6-0.3,11.4-0.7c0.1,0,0.1,0,0.2-0.1c0,0.6-0.1,1.2-0.1,1.8C37.9,3.6,35,3.9,32.2,4c-0.2,0-0.2,0.3,0,0.3
		c2.8,0,5.7,0.1,8.5-0.2c0,0.5-0.1,1-0.1,1.5c-3.4-0.3-6.9,0-10.2,0.6C30.2,6.2,30.3,6.5,30.5,6.5z"/>
	<path class="st0" d="M39.2,58.8c-1.8,0.1-3.6,0.4-5.3,0.7c-0.2,0-0.1,0.3,0,0.3c1.8-0.2,3.6-0.3,5.3-0.7
		C39.4,59,39.4,58.8,39.2,58.8z"/>
	<path class="st0" d="M39.5,12.9c-3.6-0.1-7.2,0.1-10.8,0.3c-0.3,0-0.3,0.4,0,0.4c3.6,0,7.2,0.1,10.8-0.2
		C39.7,13.3,39.8,12.9,39.5,12.9z"/>
</g>
</svg>
