<?xml version="1.0" encoding="utf-8"?>
<!-- Generator: Adobe Illustrator 23.0.3, SVG Export Plug-In . SVG Version: 6.00 Build 0)  -->
<svg version="1.1" id="Capa_1" xmlns="http://www.w3.org/2000/svg" xmlns:xlink="http://www.w3.org/1999/xlink" x="0px" y="0px"
	 viewBox="0 0 61.1 61.1" style="enable-background:new 0 0 61.1 61.1;" xml:space="preserve">
<style type="text/css">
	.st0{fill:#FFFFFF;}
</style>
<g>
	<path class="st0" d="M50,48.7c0-0.3-0.1-0.5-0.3-0.6c-0.1-0.5-0.4-0.9-1.1-1c-2.9-0.2-5.8,0-8.7,0.4c-1.7,0.3-3.9,0.5-5.6,1.3
		c4.1-9.1,10.4-19.3,10.8-29.3c0.3-7.4-3-15.3-10.3-18.2C19.1-5.1,5.7,13.5,13.3,27.4c0,0.1,0.1,0.1,0.1,0.1
		c0.1,0.3,0.5,0.5,0.9,0.4c2.6-0.9,5-1.5,7.8-1.8c0.7-0.1,1.1-0.8,1-1.3c0.5,0.1,1.1-0.4,1-0.9c-0.5-1.7-0.5-3.4,0-5.1
		c5.1-2.7,7.4-2,7.1,2c0.1,2.3-0.4,4.6-0.9,6.8c-1.1,4.6-2.8,9.2-4.7,13.5C23,47,16.9,53.3,19.6,60c0.2,0.6,1,0.8,1.5,0.5
		c0.2,0.4,0.5,0.7,1.1,0.6c8.6-0.4,17.4-0.7,26-1.9c0.7,0.4,1.8,0,1.8-1C49.6,55,49.7,51.9,50,48.7z M41.7,25.9
		c-1.3,0-2.7,0.2-4,0.3c-0.3,0-0.3,0.4,0,0.4c1.3-0.1,2.6-0.1,3.9-0.2c-0.1,0.4-0.3,0.9-0.4,1.3c-1.3,0.2-2.6,0.4-4,0.3
		c-0.2,0-0.2,0.3,0,0.3c1.2,0.1,2.6,0.2,3.8-0.1c-0.2,0.6-0.4,1.2-0.6,1.8c-2.8,0-5.6,0.2-8.4,0.4c0.6-1.9,1.1-3.9,1.3-5.9
		c2.9,0,6.1-0.3,8.9-1C42.1,24.3,41.9,25.1,41.7,25.9z M22.5,24.2c-0.1,0-0.3-0.1-0.4-0.1c-2.6,0.1-5.4,0.8-7.7,2.1
		C12.5,19.6,12.7,12,18,6.8c4.6-4.6,12.4-5.7,17.9-2.4c-3.2-0.2-6.5,0-9.7,0.3c-0.2,0-0.2,0.4,0,0.3c3.6-0.3,7.1-0.1,10.7,0
		c0.4,0.3,0.8,0.6,1.2,1c0.8,0.8,1.5,1.6,2,2.4C34.5,8.6,29,8.8,23.4,9.1c-0.1,0-0.1,0.2,0,0.2c5.7,0,11.4-0.1,17.1-0.3
		c0.4,0.7,0.8,1.4,1.1,2.1c-7.2-0.4-14.6,0.6-21.9,0.4c-0.2,0-0.2,0.3,0,0.3c7.4,0.5,14.8-0.6,22.1-0.2c0.2,0.6,0.4,1.2,0.6,1.8
		c-3.2-0.2-6.5-0.1-9.7,0c-0.2,0-0.2,0.3,0,0.3c3.2,0.2,6.6,0.4,9.8,0.2c0.1,0.6,0.2,1.2,0.3,1.8c-2.8,0.1-5.5,0.1-8.3-0.3
		c-0.3,0-0.4,0.4-0.1,0.4c2.8,0.5,5.7,0.7,8.5,0.4c0,0.6,0.1,1.1,0.1,1.7c-2.3,0-4.7,0.2-7,0.1c-0.2,0-0.2,0.4,0,0.4
		c2.3,0.1,4.7,0.2,7,0c0,1.6-0.2,3.1-0.6,4.8c-3,0.2-6,0.7-9,1.1c0.3-2.5,0.2-5-0.6-7.2C29.2,7.3,19.4,16.5,22.5,24.2z M47.7,52.7
		L47.7,52.7c-7.8,0-15.6,0.5-23.3,1.1c-0.2,0-0.2,0.3,0,0.3c7.8-0.4,15.5-0.6,23.2-0.9l0,0c-0.1,0.6-0.1,1.2-0.2,1.8
		c-7.8,0.5-15.6,0.9-23.4,1.5c-0.2,0-0.2,0.4,0,0.3c7.8-0.3,15.6-0.8,23.3-1.2c0,0.6,0,1.2,0,1.8c-8.4-0.5-17,0.3-25.3,1.3
		c-0.3,0-0.5,0.2-0.7,0.3c-0.3-7.9,5.8-14.8,8.4-22.1c0.6-1.9,1.4-3.9,2.1-6c2.8-0.1,5.6-0.1,8.3-0.4c-0.3,0.9-0.7,1.7-1,2.6
		c-1.5,0.3-2.9,0.4-4.5,0.4c-0.3,0-0.2,0.4,0,0.4c1.4,0.1,2.9,0,4.3-0.2c-0.3,0.8-0.7,1.5-1,2.2c-2.5,0.2-5,0.5-7.4,0.7
		c-0.2,0-0.2,0.3,0,0.3s0.4,0,0.5,0c0,0,0,0,0.1,0.1c0.4,0,0.8,0,1.2,0c0.7,0,1.4-0.1,2.1-0.1c1.1-0.1,2.2-0.2,3.2-0.3
		c-0.4,0.8-0.8,1.7-1.2,2.5c-1.4,0.1-2.7,0.2-4.1,0.1c-0.2,0-0.2,0.3,0,0.4c1.3,0.1,2.6,0.1,3.9,0c-0.3,0.7-0.7,1.4-1,2.1
		c-1.6,0.1-3.3,0.3-4.9,0.5c-0.2,0-0.2,0.3,0,0.3c1.5-0.1,3.1-0.1,4.6-0.3c-0.3,0.6-0.6,1.2-0.9,1.8c-1.7,0.5-3.3,0.8-5.2,0.6
		c-0.2,0-0.2,0.3,0,0.3c1.6,0.2,3.3,0.1,4.9-0.3c-0.5,1-0.9,1.9-1.3,2.8c-1.8,0.3-3.7,0.4-5.6,0.4c-0.2,0-0.2,0.3,0,0.3
		c1.8,0.1,3.6,0.1,5.3-0.2c-0.1,0.3-0.3,0.6-0.4,0.8c-0.4,0.9,0.2,1.6,0.9,1.8c0,0.1,0,0.2,0.1,0.3C30.1,51,27.6,51,25,50.9
		c-0.2,0-0.1,0.2,0,0.2c4,0.4,7.9,0.2,11.9-0.1c3.1-0.2,7.6-0.9,11-0.5C47.9,51.1,47.8,51.9,47.7,52.7z M48.1,50
		c-2.6-0.5-5.9-0.1-8.3,0.1c-0.5,0-1,0.1-1.6,0.1c0.4-0.1,0.8-0.2,1.2-0.3c2.9-0.5,5.8-0.6,8.8-0.5C48.2,49.6,48.2,49.8,48.1,50z"/>
	<path class="st0" d="M42.4,20.9c-2.6,0-5.2,0.3-7.8,0.2c-0.2,0-0.2,0.3,0,0.3c2.6,0.2,5.3,0.3,7.8-0.1
		C42.7,21.3,42.6,20.9,42.4,20.9z"/>
	<path class="st0" d="M38.6,6.8c-5.2-0.4-10.5,0-15.8,0c-0.2,0-0.2,0.3,0,0.3c5.2,0.1,10.6,0.4,15.8,0C38.9,7.1,38.9,6.8,38.6,6.8z"
		/>
</g>
</svg>
