<?xml version="1.0" encoding="utf-8"?>
<!-- Generator: Adobe Illustrator 23.0.3, SVG Export Plug-In . SVG Version: 6.00 Build 0)  -->
<svg version="1.1" id="Capa_1" xmlns="http://www.w3.org/2000/svg" xmlns:xlink="http://www.w3.org/1999/xlink" x="0px" y="0px"
	 viewBox="0 0 62.3 62.3" style="enable-background:new 0 0 62.3 62.3;" xml:space="preserve">
<style type="text/css">
	.st0{fill:#FFFFFF;}
</style>
<g>
	<path class="st0" d="M22.2,6.6c-0.1,0-0.1,0.2,0,0.2C22.3,6.8,22.3,6.6,22.2,6.6z"/>
	<path class="st0" d="M48.7,39c-2.9-6.9-9-11.8-16.2-13c3-2.1,5.7-5,8.4-7.3c1.9-1.6,4.4-3.4,4.5-6c0.4-0.2,0.7-0.5,0.7-1.1
		c-0.2-2-0.5-4.1-0.6-6.1c-0.1-1.3,0.3-2.9-0.7-3.9C45,0.9,44.6-0.1,43.7,0c-8.3,0.6-16.7,1.1-25,1.6c-0.1,0-0.1,0-0.2,0
		c-0.6-0.2-1.3,0-1.4,0.8c-0.4,2.7-0.7,5.5-0.5,8.3c0,0.2,0.1,0.4,0.2,0.5c-0.5,0.7-0.2,1.9,0.9,1.8c4.7-0.4,9.2-0.3,13.7,0.6
		c-3.6,2.8-7.5,4.6-11.9,6C19.2,19.7,19,20,19,20.3c-0.2,0.1-0.3,0.4-0.4,0.7c-0.5,3.1-0.4,6.4,0.9,9.3c0,0.1,0.1,0.2,0.2,0.2
		c-0.7,0.5-0.4,1.9,0.6,1.8c4.9-0.1,9.5,1.3,11.9,6c1.5,2.9,1.6,10.3-3.9,9.2c-3.9-0.8-3.9-6.1-3.3-9c0.1-0.5-0.3-0.8-0.6-0.9
		c-0.1-0.2-0.3-0.3-0.5-0.3c-1.7-0.4-3.5,0.1-5.2,0.3c-1.6,0.2-3.3,0.4-4.9,0.7c-0.5-0.1-0.9,0.1-1.1,0.7
		C8,56.6,30.1,68.3,44.1,58.9C50.6,54.6,51.6,45.9,48.7,39z M18.3,10.7c0.4-2.5,0.7-4.9,1.1-7.4c7.9,0.5,16.1,0.2,24-0.9
		c-0.4,0.9-0.2,2.1-0.2,3.2c0,0.1,0,0.3,0,0.4c-6.3-0.4-12.9-0.1-19.3,0.3c-0.2,0-0.2,0.3,0,0.3c6.4,0,12.9,0.1,19.3-0.2
		c0,0.9,0.1,1.9,0.1,2.8c-5.6-0.7-11.2-0.9-16.8-0.7c-0.2,0-0.2,0.3,0,0.3c0.4,0.1,0.8,0.1,1.2,0.2c0.1,0,0.1-0.1,0-0.1
		c2.1,0.7,5.4,0.1,7.7,0.3c2.7,0.1,5.3,0.4,8,0.6c0.1,0.8,0.2,1.5,0.3,2.2c0,0.2,0.1,0.3,0.2,0.4c-0.5,1.2-1.7,1.9-2.7,2.7
		c-0.4,0.3-0.8,0.7-1.2,1c-2.8,0.1-5.4,0.4-8.2,0.1c1.1-0.8,2.2-1.6,3.1-2.5c0.6-0.6,0.3-1.8-0.5-2C29,10.5,23.7,10.1,18.3,10.7z
		 M46.5,51.7c-4.9-0.7-9.9-0.6-14.9-0.4c-0.2,0-0.2,0.3,0,0.3c4.9-0.1,9.8,0.3,14.7,0.6c-0.3,0.7-0.7,1.3-1.1,1.9
		c-1.3,0.3-4-0.4-5.3-0.5c-1.7-0.2-3.5-0.3-5.3-0.4c-4.1-0.3-8.2-0.5-12.3-0.6c-0.2,0-0.2,0.3,0,0.3c4.7,0.3,9.4,0.5,14,0.9
		c1.8,0.2,6.1,1.3,8.3,0.9c-0.5,0.5-1,1.1-1.6,1.5c-6.5-0.7-13-1.2-19.5-1.6c-0.2,0-0.1,0.2,0,0.2c6.3,0.7,12.6,1.3,18.9,1.8
		c-0.2,0.1-0.3,0.2-0.5,0.3c-0.8,0.5-1.6,0.9-2.4,1.3c-5-0.2-10-0.4-15-1.1c-0.2,0-0.2,0.2-0.1,0.3c4.6,0.8,9.3,1.3,13.9,1.3
		c-12,4.2-26.2-5.4-23.9-18.9c1.6-0.1,3.2-0.2,4.7-0.3c1.3-0.1,2.6-0.1,3.9-0.4c-1,3.7-0.7,8.2,3.3,10.1c2.1,1,4.3,0.6,5.9-0.6
		c4.9,0,9.9,0.2,14.8,0.3C47.2,49.9,46.9,50.9,46.5,51.7z M47.4,48.4c-4.8-0.3-9.7-0.3-14.5-0.1c0.9-0.8,1.7-1.8,2.1-3
		c2.9-8.1-6.2-16.6-14-15.2c0-0.1,0-0.1,0-0.2c-0.4-2.8-0.6-5.5-0.1-8.3c0.1-0.3,0-0.6-0.1-0.8c3.7-0.6,7.2-2,10.3-4.1
		c2.6,0.4,5.5,0.7,8.1,0.1c-0.7,0.6-1.5,1.3-2.2,1.9c-3.1,0.2-6.2,0.5-9.3,0.4c-0.2,0-0.2,0.3,0,0.3c2.8,0.2,5.7,0.3,8.5,0
		c-0.8,0.7-1.7,1.4-2.5,2.1c-3.5,0.1-7,0.2-10.5,0.2c-0.2,0-0.2,0.2,0,0.2c3.3,0.1,6.6,0.3,9.9,0.1c-0.9,0.8-1.8,1.5-2.6,2.3
		c-3,0-5.9,0.1-8.9,0c-0.2,0-0.2,0.2,0,0.2c2.8,0.2,5.6,0.4,8.4,0.3c-0.3,0.3-0.6,0.7-0.8,1c-0.4,0.5-0.3,1.2,0.1,1.5
		c-2.5,0-5.1,0-7.6-0.1c-0.2,0-0.2,0.3,0,0.3c3,0.2,6,0.3,8.9,0.2c2,0.4,3.8,1,5.6,1.9c-2.8-0.1-5.5,0.1-8.3-0.1
		c-0.2,0-0.2,0.2,0,0.2c2.8,0.3,5.7,0.5,8.5,0.2c0.1,0,0.1-0.1,0.2-0.1c0.9,0.5,1.8,1,2.6,1.5c-2.6-0.2-5.3,0-8,0
		c-0.2,0-0.2,0.3,0,0.3c2.7,0,5.5,0.2,8.2,0c0.1,0,0.1,0,0.1-0.1c0.7,0.5,1.4,1.1,2,1.6c-2.7-0.1-5.4,0.1-8.1,0.1
		c-0.2,0-0.2,0.3,0,0.3c2.9,0,5.7,0.2,8.6,0.1c0.6,0.6,1.2,1.3,1.8,2c-2.9-0.2-5.8,0-8.6,0.1c-0.2,0-0.2,0.3,0,0.3
		c3,0,6,0.2,8.9,0.1c0.4,0.5,0.7,1,1,1.6c0.4,0.8,0.8,1.6,1.1,2.4c-3.4,0.2-6.7,0.5-10.1,0.5c-0.2,0-0.2,0.3,0,0.3
		c3.4,0.1,6.9,0.2,10.2-0.4c0.3,0.8,0.6,1.7,0.7,2.6c-3.1-0.1-6.4,0.1-9.5,0.4c-0.2,0-0.2,0.3,0,0.3c3.1,0.1,6.4,0.1,9.5-0.2
		c0,0,0,0,0.1,0c0.1,0.8,0.2,1.5,0.3,2.3c-3.9,0-7.9,0.3-11.8,0.5c-0.2,0-0.2,0.3,0,0.3c3.9-0.1,7.9-0.2,11.8-0.4
		C47.5,46.9,47.5,47.7,47.4,48.4z"/>
	<path class="st0" d="M44.9,37.9c-3.3,0-6.5,0.2-9.8,0.1c-0.2,0-0.2,0.3,0,0.3c3.2,0.2,6.5,0.3,9.8-0.1
		C45.1,38.2,45.1,37.9,44.9,37.9z"/>
	<path class="st0" d="M42.4,13.6c-2.5,0-5.1,0.6-7.5,1c-0.2,0-0.1,0.3,0,0.3c2.5-0.3,5.2-0.3,7.5-1C42.6,13.8,42.6,13.6,42.4,13.6z"
		/>
	<path class="st0" d="M42.9,10.8c-3,0.1-5.8,0.3-8.8,0c-0.2,0-0.2,0.3,0,0.3c2.9,0.4,6,0.6,8.8,0.1C43.2,11.2,43.1,10.8,42.9,10.8z"
		/>
</g>
</svg>
