<?xml version="1.0" encoding="utf-8"?>
<!-- Generator: Adobe Illustrator 23.0.3, SVG Export Plug-In . SVG Version: 6.00 Build 0)  -->
<svg version="1.1" id="Capa_1" xmlns="http://www.w3.org/2000/svg" xmlns:xlink="http://www.w3.org/1999/xlink" x="0px" y="0px"
	 viewBox="0 0 512 512" style="enable-background:new 0 0 512 512;" xml:space="preserve">
<style type="text/css">
	.st0{fill:#0099FF;}
</style>
<g>
	<g>
		<path class="st0" d="M380.9,317.8h-25.4c-5.8,0-10.5,4.7-10.5,10.5v67.8c0,5.8,4.7,10.5,10.5,10.5h25.4c5.8,0,10.5-4.7,10.5-10.5
			v-67.8C391.4,322.5,386.7,317.8,380.9,317.8z M376.4,391.6H360v-58.8h16.4V391.6z"/>
	</g>
</g>
<g>
	<g>
		<path class="st0" d="M448.4,317.8h-25.4c-5.8,0-10.5,4.7-10.5,10.5v67.8c0,5.8,4.7,10.5,10.5,10.5h25.4c5.8,0,10.5-4.7,10.5-10.5
			v-67.8C458.9,322.5,454.1,317.8,448.4,317.8z M443.9,391.6h-16.4v-58.8h16.4V391.6z"/>
	</g>
</g>
<g>
	<g>
		<path class="st0" d="M103,155.4c-14-4.4-15.7-6.1-20.1-20.1c-1.4-4.5-5.5-7.6-10.3-7.6c-4.7,0-8.9,3-10.3,7.6
			c-4.4,14-6,15.7-20.1,20.1c-4.5,1.4-7.6,5.5-7.6,10.3c0,4.7,3,8.9,7.6,10.3c14,4.4,15.7,6.1,20.1,20.1c1.4,4.5,5.5,7.6,10.3,7.6
			c4.7,0,8.9-3,10.3-7.6c4.4-14,6.1-15.7,20.1-20.1c4.5-1.4,7.6-5.5,7.6-10.3C110.6,161,107.5,156.9,103,155.4z M72.7,180.7
			c-3.5-7.3-7.7-11.6-15-15c7.3-3.5,11.6-7.7,15-15c3.5,7.3,7.7,11.6,15,15C80.4,169.2,76.1,173.4,72.7,180.7z"/>
	</g>
</g>
<g>
	<g>
		<path class="st0" d="M293.6,408.3c-11.2-3.5-12.2-4.5-15.7-15.7c-1.3-4.3-5.2-7.2-9.7-7.2c-4.5,0-8.4,2.9-9.7,7.2
			c-3.5,11.2-4.5,12.2-15.7,15.7c-4.3,1.3-7.2,5.2-7.2,9.7c0,4.5,2.9,8.4,7.2,9.7c11.2,3.5,12.2,4.5,15.7,15.7
			c1.3,4.3,5.2,7.2,9.7,7.2c4.5,0,8.4-2.9,9.7-7.2c3.5-11.2,4.5-12.2,15.7-15.7c4.3-1.3,7.2-5.2,7.2-9.7
			C300.7,413.5,297.9,409.6,293.6,408.3z M268.1,427.6c-2.4-4.3-5.3-7.2-9.6-9.6c4.3-2.4,7.2-5.3,9.6-9.6c2.4,4.3,5.3,7.2,9.6,9.6
			C273.5,420.4,270.5,423.3,268.1,427.6z"/>
	</g>
</g>
<g>
	<g>
		<path class="st0" d="M495.1,181.6c-11.2-3.5-12.2-4.5-15.7-15.7c-1.3-4.3-5.2-7.2-9.7-7.2c-4.5,0-8.4,2.9-9.7,7.2
			c-3.5,11.2-4.5,12.2-15.7,15.7c-4.3,1.3-7.2,5.2-7.2,9.7c0,4.5,2.9,8.4,7.2,9.7c11.2,3.5,12.2,4.5,15.7,15.7
			c1.3,4.3,5.2,7.2,9.7,7.2c4.5,0,8.4-2.9,9.7-7.2c3.5-11.2,4.5-12.2,15.7-15.7c4.3-1.3,7.2-5.2,7.2-9.7
			C502.3,186.9,499.4,183,495.1,181.6z M469.7,201c-2.4-4.3-5.3-7.2-9.6-9.6c4.3-2.4,7.2-5.3,9.6-9.6c2.4,4.3,5.3,7.2,9.6,9.6
			C475,193.8,472.1,196.7,469.7,201z"/>
	</g>
</g>
<g>
	<g>
		<path class="st0" d="M491.2,438.3V382c0-4.1-3.4-7.5-7.5-7.5s-7.5,3.4-7.5,7.5v52.1c-4.5-4.9-10.9-8-18.1-8c-2.4,0-4.7,0.4-7,1
			c-4.4-6.7-12-11-20.4-11c-11.7,0-21.5,8.2-23.9,19.2c-2.5-0.4-5.2-0.3-7.7,0.1c-2-11.5-12.1-20.2-24.2-20.2
			c-13.5,0-24.5,11-24.5,24.5v25.6h-30.7V308.9h156.5V342c0,4.1,3.4,7.5,7.5,7.5s7.5-3.4,7.5-7.5v-33.1h7.8c4.4,0,8-2.1,9.4-5.7
			s0.5-7.5-2.7-10.7L390.9,178.4c-3.4-3.4-9.1-5.7-13.8-5.7c0,0,0,0,0,0c0,0-217.8,0-217.8,0c-4.5,0-9.9,2.3-13.3,5.7l-38.2,38
			c-2.9,2.9-3,7.7,0,10.6c2.9,2.9,7.7,3,10.6,0l39-38.8l7.5,7.5L68,292.6c-0.6,0.6-2.4,1.3-3.2,1.3H51l42.3-42c2.9-2.9,3-7.7,0-10.6
			c-2.9-2.9-7.7-3-10.6,0l-51.7,51.3c-3.1,3.1-4.1,7.1-2.7,10.7c1.5,3.6,5,5.7,9.4,5.7h24.5v29.4c-2.2,1-4.8,1.9-8.2,2.9
			c-4.5,1.4-7.6,5.5-7.6,10.3c0,4.7,3,8.9,7.6,10.3c3.4,1.1,6.1,2,8.2,2.9v50.6c-9.8,1.6-17.9,8.1-21.9,16.9
			c-3.4-1.4-7.1-2.1-10.9-2.1C13.2,430.1,0,443.3,0,459.5v13.4c0,4.1,3.4,7.5,7.5,7.5h497c4.1,0,7.5-3.4,7.5-7.5v-10.4
			C512,450.2,503,440.1,491.2,438.3z M62.3,465.4H15v-5.9c0-7.9,6.5-14.4,14.4-14.4c4,0,7.6,1.6,10.4,4.5c2.1,2.2,5.4,2.9,8.2,1.7
			c2.8-1.1,4.7-3.9,4.7-7c0-6.2,4-11.5,9.5-13.5V465.4z M485.8,293.9H285.6c-0.8,0-2.6-0.8-3.2-1.3l-17.1-17.2h201.9L485.8,293.9z
			 M422.4,230.9H395c-4.1,0-7.5,3.4-7.5,7.5s3.4,7.5,7.5,7.5h42.5l14.6,14.5H250.4l-14.5-14.5H353c4.1,0,7.5-3.4,7.5-7.5
			s-3.4-7.5-7.5-7.5H220.9l-14.5-14.5h201.3L422.4,230.9z M377,187.7c0.8,0,2.7,0.8,3.3,1.3l12.4,12.3H191.5L178,187.7L377,187.7z
			 M201.2,465.4h-54.3V332.8h54.3L201.2,465.4L201.2,465.4z M216.2,465.4V330.3c0-6.9-5.6-12.5-12.5-12.5h-59.3
			c-6.9,0-12.5,5.6-12.5,12.5v135.1H77.3v-78.7c1.9,1.7,4.4,2.7,7.1,2.7c4.7,0,8.9-3,10.3-7.6c4.4-14,6.1-15.7,20.1-20.1
			c4.5-1.4,7.6-5.5,7.6-10.3c0-4.7-3-8.9-7.6-10.3c-14-4.4-15.7-6-20.1-20.1c-1.4-4.5-5.5-7.6-10.3-7.6c-2.7,0-5.2,1-7.1,2.7v-9.8
			c0-0.8,0.8-2.7,1.3-3.2l96.8-96.8l96.4,96.8c3.4,3.4,9.1,5.8,13.8,5.8h19.1v156.5L216.2,465.4L216.2,465.4z M69.4,351.5
			c7.3-3.5,11.6-7.7,15-15c3.5,7.3,7.7,11.6,15,15c-7.3,3.5-11.6,7.7-15,15C80.9,359.2,76.7,355,69.4,351.5z M497,465.4L497,465.4
			H365.4v-25.6c0-5.3,4.3-9.5,9.5-9.5c5.3,0,9.5,4.3,9.5,9.5v7.2c0,3,1.7,5.6,4.4,6.8c2.7,1.2,5.9,0.7,8.1-1.3
			c1.8-1.6,4-2.4,6.3-2.4c2.1,0,4.1,0.7,5.8,2c2.3,1.8,5.3,2.1,7.9,0.8c2.6-1.3,4.2-3.9,4.2-6.7v-5.5c0-5.3,4.3-9.5,9.5-9.5
			c4.5,0,8.5,3.2,9.3,7.7c0.5,2.6,2.3,4.7,4.8,5.6c2.5,0.9,5.2,0.4,7.3-1.2c1.7-1.4,3.8-2.1,6-2.1c5.3,0,9.5,4.3,9.5,9.6
			c0,3.1,1.9,5.8,4.7,7c2.8,1.1,6.1,0.4,8.2-1.8c1.8-1.9,4.3-3,6.9-3c5.3,0,9.5,4.3,9.5,9.5V465.4z"/>
	</g>
</g>
<g>
	<g>
		<path class="st0" d="M188.9,381.9c-4.1,0-7.5,3.4-7.5,7.5v10.5c0,4.1,3.4,7.5,7.5,7.5s7.5-3.4,7.5-7.5v-10.5
			C196.4,385.2,193.1,381.9,188.9,381.9z"/>
	</g>
</g>
<g>
	<g>
		<path class="st0" d="M255,332.6h-19c-5.8,0-10.5,4.7-10.5,10.5v23c0,5.8,4.7,10.5,10.5,10.5h19c5.8,0,10.5-4.7,10.5-10.5v-23
			C265.5,337.3,260.8,332.6,255,332.6z M250.5,361.6h-10v-14h10V361.6z"/>
	</g>
</g>
<g>
	<g>
		<path class="st0" d="M389,31.6c-28.4,0-51.5,23.1-51.5,51.5s23.1,51.5,51.5,51.5s51.5-23.1,51.5-51.5S417.4,31.6,389,31.6z
			 M389,119.6c-20.1,0-36.5-16.4-36.5-36.5s16.4-36.5,36.5-36.5s36.5,16.4,36.5,36.5S409.1,119.6,389,119.6z"/>
	</g>
</g>
</svg>
