<?xml version="1.0" encoding="utf-8"?>
<!-- Generator: Adobe Illustrator 23.0.3, SVG Export Plug-In . SVG Version: 6.00 Build 0)  -->
<svg version="1.1" id="Layer_1" xmlns="http://www.w3.org/2000/svg" xmlns:xlink="http://www.w3.org/1999/xlink" x="0px" y="0px"
	 viewBox="0 0 512 512" style="enable-background:new 0 0 512 512;" xml:space="preserve">
<style type="text/css">
	.st0{fill:#0099FF;}
</style>
<g id="XMLID_614_">
	<g id="XMLID_592_">
		<g id="XMLID_593_">
			<path id="XMLID_611_" class="st0" d="M256,284.1c78.3,0,142-63.7,142-142s-63.7-142-142-142s-142,63.7-142,142
				S177.7,284.1,256,284.1z M256,20.1c67.3,0,122,54.7,122,122s-54.7,122-122,122s-122-54.7-122-122S188.7,20.1,256,20.1z"/>
			<path id="XMLID_610_" class="st0" d="M345.5,152.2h8.5c5.5,0,10-4.5,10-10s-4.5-10-10-10h-8.5c-5.5,0-10,4.5-10,10
				S340,152.2,345.5,152.2z"/>
			<path id="XMLID_609_" class="st0" d="M176.5,142c0-5.5-4.5-10-10-10H158c-5.5,0-10,4.5-10,10s4.5,10,10,10h8.5
				C172,152,176.5,147.5,176.5,142z"/>
			<path id="XMLID_608_" class="st0" d="M256.1,62.6c5.5,0,10-4.5,10-10v-8.5c0-5.5-4.5-10-10-10s-10,4.5-10,10v8.5
				C246.1,58.1,250.6,62.6,256.1,62.6z"/>
			<path id="XMLID_607_" class="st0" d="M255.9,221.6c-5.5,0-10,4.5-10,10v8.5c0,5.5,4.5,10,10,10s10-4.5,10-10v-8.5
				C265.9,226.1,261.4,221.6,255.9,221.6z"/>
			<path id="XMLID_606_" class="st0" d="M248.8,149.1l0.1,0.1c2,1.9,4.5,2.9,7.1,2.9c2.6,0,5.1-1,7.1-2.9L332.2,80
				c3.9-3.9,3.9-10.2,0-14.1s-10.2-3.9-14.1,0l-62.1,62l-36.1-36.1c-3.9-3.9-10.2-3.9-14.1,0c-3.9,3.9-3.9,10.2,0,14.1L248.8,149.1z
				"/>
			<path id="XMLID_604_" class="st0" d="M473.3,282.1c-14.5-11.6-35.3-10.5-48.4,2.6l-70.4,70.4c-1.8-13.9-11.9-25.5-25.8-29
				l-94.6-23.7c-19.7-4.9-40.4-2.5-58.5,6.7l-58,29.8l-5.5-9.5c-2.1-3.7-5.5-6.3-9.6-7.4s-8.4-0.5-12,1.6l-57.3,33.1
				c-7.6,4.4-10.2,14.1-5.8,21.7L99.8,504c2.1,3.7,5.5,6.3,9.6,7.4c1.4,0.4,2.8,0.5,4.1,0.5c2.7,0,5.5-0.7,7.9-2.1l57.3-33.1
				c7.6-4.4,10.2-14.1,5.8-21.7l-56.9-98.6l57.1-29.4c13.7-7.1,29.5-8.9,44.5-5.1l94.6,23.7c6.4,1.6,10.9,7.4,10.9,14
				c0,7.9-6.5,14.4-14.4,14.4h-10.8H246c-5.5,0-10,4.5-10,10s4.5,10,10,10h63.5h10.8h8.6c9.7,0,18.8-3.8,25.7-10.6L439,299
				c5.9-5.9,15.2-6.4,21.7-1.2c3.7,2.9,5.8,7.1,6.1,11.8c0.3,4.7-1.4,9.1-4.7,12.4l-89,89c-12.1,12.1-28.3,18.8-45.4,18.8h-81.6
				c-5.5,0-10,4.5-10,10s4.5,10,10,10h81.6c22.5,0,43.6-8.8,59.6-24.7l89-89c7.3-7.3,11.1-17.3,10.6-27.6
				C486.3,298.1,481.3,288.6,473.3,282.1z M149.3,470.7l-24.9-43.1c-2.8-4.8-8.9-6.4-13.7-3.7c-4.8,2.8-6.4,8.9-3.7,13.7l24.9,43.1
				l-16.9,9.7L46.8,372.1l50.2-29l68.3,118.3L149.3,470.7z"/>
			<path id="XMLID_603_" class="st0" d="M462,33.9c5.5,0,10-4.5,10-10V10.1c0-5.5-4.5-10-10-10s-10,4.5-10,10v13.8
				C452,29.4,456.5,33.9,462,33.9z"/>
			<path id="XMLID_602_" class="st0" d="M462,100.1c5.5,0,10-4.5,10-10V76.3c0-5.5-4.5-10-10-10s-10,4.5-10,10v13.8
				C452,95.6,456.5,100.1,462,100.1z"/>
			<path id="XMLID_601_" class="st0" d="M502,40.1h-13.8c-5.5,0-10,4.5-10,10s4.5,10,10,10H502c5.5,0,10-4.5,10-10
				S507.5,40.1,502,40.1z"/>
			<path id="XMLID_600_" class="st0" d="M422,60.1h13.8c5.5,0,10-4.5,10-10s-4.5-10-10-10H422c-5.5,0-10,4.5-10,10
				S416.5,60.1,422,60.1z"/>
			<path id="XMLID_599_" class="st0" d="M50,239.9c5.5,0,10-4.5,10-10v-13.8c0-5.5-4.5-10-10-10s-10,4.5-10,10v13.8
				C40,235.4,44.5,239.9,50,239.9z"/>
			<path id="XMLID_598_" class="st0" d="M50,306.1c5.5,0,10-4.5,10-10v-13.8c0-5.5-4.5-10-10-10s-10,4.5-10,10v13.8
				C40,301.6,44.5,306.1,50,306.1z"/>
			<path id="XMLID_597_" class="st0" d="M76.2,266.1H90c5.5,0,10-4.5,10-10s-4.5-10-10-10H76.2c-5.5,0-10,4.5-10,10
				S70.7,266.1,76.2,266.1z"/>
			<path id="XMLID_596_" class="st0" d="M33.8,256.1c0-5.5-4.5-10-10-10H10c-5.5,0-10,4.5-10,10s4.5,10,10,10h13.8
				C29.3,266.1,33.8,261.6,33.8,256.1z"/>
			<path id="XMLID_595_" class="st0" d="M206.1,429.7c-2.6,0-5.2,1.1-7.1,2.9c-1.9,1.9-2.9,4.4-2.9,7.1s1.1,5.2,2.9,7.1
				c1.9,1.9,4.4,2.9,7.1,2.9c2.6,0,5.2-1.1,7.1-2.9s2.9-4.4,2.9-7.1s-1.1-5.2-2.9-7.1C211.4,430.7,208.8,429.7,206.1,429.7z"/>
			<path id="XMLID_594_" class="st0" d="M88.7,390.9c-1.9,1.9-2.9,4.4-2.9,7.1s1.1,5.2,2.9,7.1c1.9,1.9,4.4,2.9,7.1,2.9
				c2.6,0,5.2-1.1,7.1-2.9c1.9-1.9,2.9-4.4,2.9-7.1s-1.1-5.2-2.9-7.1c-1.9-1.9-4.4-2.9-7.1-2.9S90.5,389,88.7,390.9z"/>
		</g>
	</g>
</g>
</svg>
