<?xml version="1.0" encoding="utf-8"?>
<!-- Generator: Adobe Illustrator 23.0.3, SVG Export Plug-In . SVG Version: 6.00 Build 0)  -->
<svg version="1.1" id="Слой_1" xmlns="http://www.w3.org/2000/svg" xmlns:xlink="http://www.w3.org/1999/xlink" x="0px" y="0px"
	 viewBox="0 0 432.2 480" style="enable-background:new 0 0 432.2 480;" xml:space="preserve">
<style type="text/css">
	.st0{fill:#0099FF;}
</style>
<g id="Big_data">
	<path class="st0" d="M408.1,313.1V166.9c17.1-4.3,27.4-21.7,23.1-38.8c-4.3-17.1-21.7-27.4-38.8-23.1c-5,1.3-9.7,3.8-13.6,7.3
		L247.7,36.5c0.3-1.5,0.4-3,0.4-4.5c0-17.7-14.3-32-32-32s-32,14.3-32,32c0,1.5,0.2,3,0.5,4.5L53.4,112.2
		c-13.1-11.8-33.3-10.7-45.1,2.4s-10.7,33.3,2.4,45.1c3.8,3.4,8.4,5.9,13.4,7.2v146.3C7,317.5-3.3,334.8,1,351.9
		s21.7,27.4,38.8,23.1c5-1.3,9.7-3.8,13.6-7.3l131.2,75.7c-0.3,1.5-0.4,3-0.4,4.5c0,17.7,14.3,32,32,32s32-14.3,32-32
		c0-1.5-0.2-3-0.5-4.5l131.2-75.7c13.1,11.8,33.3,10.7,45.1-2.4c11.8-13.1,10.7-33.3-2.4-45.1C417.7,316.9,413.1,314.4,408.1,313.1z
		 M291.4,336l19.6-33.2l58.3,32.9l-0.1,0.2H291.4z M63,336l-0.1-0.2l58.3-32.9l19.6,33.2H63z M140.8,144l-19.6,33.2l-58.3-32.9
		L63,144L140.8,144z M369.2,144l0.1,0.2L311,177.2L291.4,144H369.2z M391.3,313.4L348.1,240l43.3-73.4c0.3,0.1,0.5,0.2,0.8,0.2
		v146.3C391.8,313.2,391.6,313.3,391.3,313.4z M377.1,321.8l-58-32.8l19.6-33.3l38.7,65.6C377.4,321.5,377.3,321.7,377.1,321.8z
		 M246.9,231.8l58.3-32.9l24.3,41.2l-24.3,41.2l-58.3-32.9C248.5,242.9,248.5,237.1,246.9,231.8L246.9,231.8z M377.5,158.6
		l-38.7,65.6L319.1,191l58-32.8C377.3,158.3,377.4,158.5,377.5,158.6z M297.1,185l-58,32.8c-4.1-4.2-9.3-7.2-15-8.7V144h48.8
		L297.1,185z M216.1,256c-8.8,0-16-7.2-16-16c0-8.8,7.2-16,16-16c8.8,0,16,7.2,16,16C232.1,248.8,224.9,256,216.1,256z M224.1,128
		V62.9c0.3-0.1,0.5-0.2,0.8-0.2l38.6,65.4H224.1z M208.1,62.9V128h-39.3l38.6-65.4C207.6,62.7,207.8,62.8,208.1,62.9z M208.1,144
		v65.1c-5.7,1.5-10.9,4.5-15,8.7l-58-32.8l24.2-41H208.1z M54.7,321.4l38.7-65.6l19.6,33.3l-58,32.7
		C54.9,321.7,54.8,321.5,54.7,321.4z M102.7,240l24.3-41.2l58.3,32.9c-1.6,5.4-1.6,11.1,0,16.5L127,281.2L102.7,240z M55.1,158.2
		l58,32.8l-19.6,33.3l-38.7-65.6C54.8,158.5,54.9,158.3,55.1,158.2z M40.9,166.6L84.1,240l-43.2,73.4c-0.3-0.1-0.5-0.2-0.8-0.2
		V166.9C40.4,166.8,40.6,166.7,40.9,166.6z M135.1,295l58-32.8c4.1,4.2,9.3,7.2,15,8.7V336h-48.8L135.1,295z M208.1,352v65.1
		c-0.3,0.1-0.5,0.2-0.8,0.2L168.8,352H208.1z M224.1,417.1V352h39.3l-38.5,65.4C224.6,417.3,224.4,417.2,224.1,417.1z M224.1,336
		v-65.1c5.7-1.5,10.9-4.5,15-8.7l58,32.8l-24.2,41H224.1z M400.1,120c8.8,0,16,7.2,16,16s-7.2,16-16,16s-16-7.2-16-16
		S391.3,120,400.1,120z M370,125.6c-0.3,0.8-0.5,1.6-0.8,2.4H282l-43.3-73.4c1-1,1.9-2.1,2.7-3.2L370,125.6z M216.1,16
		c8.8,0,16,7.2,16,16s-7.2,16-16,16c-8.8,0-16-7.2-16-16S207.3,16,216.1,16z M193.5,54.6L150.2,128H63c-0.2-0.8-0.5-1.6-0.8-2.4
		l128.6-74.2C191.6,52.5,192.5,53.6,193.5,54.6z M16.1,136c0-8.8,7.2-16,16-16s16,7.2,16,16s-7.2,16-16,16S16.1,144.8,16.1,136z
		 M32.1,360c-8.8,0-16-7.2-16-16s7.2-16,16-16s16,7.2,16,16S40.9,360,32.1,360z M62.2,354.4c0.3-0.8,0.5-1.6,0.8-2.4h87.2l43.3,73.4
		c-1,1-1.9,2.1-2.7,3.2L62.2,354.4z M216.1,464c-8.8,0-16-7.2-16-16s7.2-16,16-16c8.8,0,16,7.2,16,16S224.9,464,216.1,464z
		 M238.7,425.4L282,352h87.2c0.2,0.8,0.5,1.6,0.8,2.4l-128.6,74.2C240.6,427.5,239.7,426.4,238.7,425.4z M400.1,360
		c-8.8,0-16-7.2-16-16s7.2-16,16-16s16,7.2,16,16S408.9,360,400.1,360z"/>
</g>
</svg>
