<?xml version="1.0" encoding="utf-8"?>
<!-- Generator: Adobe Illustrator 23.0.3, SVG Export Plug-In . SVG Version: 6.00 Build 0)  -->
<svg version="1.1" id="Слой_1" xmlns="http://www.w3.org/2000/svg" xmlns:xlink="http://www.w3.org/1999/xlink" x="0px" y="0px"
	 viewBox="0 0 496 496" style="enable-background:new 0 0 496 496;" xml:space="preserve">
<style type="text/css">
	.st0{fill:#0099FF;}
</style>
<path class="st0" d="M248,384c4.4,0,8,3.6,8,8h16c0-10.4-6.7-19.2-16-22.5V352h-16v17.5c-9.3,3.3-16,12.1-16,22.5
	c0,13.2,10.8,24,24,24c4.4,0,8,3.6,8,8s-3.6,8-8,8s-8-3.6-8-8h-16c0,10.4,6.7,19.2,16,22.5V464h16v-17.5c9.3-3.3,16-12.1,16-22.5
	c0-13.2-10.8-24-24-24c-4.4,0-8-3.6-8-8S243.6,384,248,384z"/>
<path class="st0" d="M384,96h-48v48h48V96z M368,128h-16v-16h16V128z"/>
<path class="st0" d="M448,96h-48v48h48V96z M432,128h-16v-16h16V128z"/>
<path class="st0" d="M384,160h-48v48h48V160z M368,192h-16v-16h16V192z"/>
<path class="st0" d="M448,160h-48v48h48V160z M432,192h-16v-16h16V192z"/>
<path class="st0" d="M384,272v-48h-48v48H384z M352,240h16v16h-16V240z"/>
<path class="st0" d="M448,224h-48v48h48V224z M432,256h-16v-16h16V256z"/>
<path class="st0" d="M496,80V64h-16V32h-16V0H320v32h-16v32h-16v16h16v208h-64v-96h16v-48h-16v-12.2L128,54.3L80,87.5V62.8H32v58
	l-16,11.1V144H0v48h16v97.5C6.7,292.8,0,301.6,0,312v16c0,13.2,10.8,24,24,24h156.2c-12.6,15.2-20.2,34.7-20.2,56
	c0,48.5,39.5,88,88,88s88-39.5,88-88c0-21.3-7.6-40.8-20.2-56H472c13.2,0,24-10.8,24-24v-16c0-10.4-6.7-19.2-16-22.5V80H496z
	 M336,16h112v16H336V16z M320,48h144v16H320V48z M48,78.8h16v19.8l-16,11.1V78.8z M32,140.2l96-66.5l96,66.5v3.8H32V140.2z M16,160
	h224v16H16V160z M224,192v96h-64v-80H96v80H32v-96H224z M144,288h-32v-64h32V288z M248,480c-39.7,0-72-32.3-72-72s32.3-72,72-72
	s72,32.3,72,72S287.7,480,248,480z M480,328c0,4.4-3.6,8-8,8H298.4c-14.3-10-31.7-16-50.4-16s-36.1,6-50.4,16H24c-4.4,0-8-3.6-8-8
	v-16c0-4.4,3.6-8,8-8h448c4.4,0,8,3.6,8,8V328z M464,288H320V80h144V288z"/>
</svg>
