<?xml version="1.0" encoding="utf-8"?>
<!-- Generator: Adobe Illustrator 23.0.3, SVG Export Plug-In . SVG Version: 6.00 Build 0)  -->
<svg version="1.1" xmlns="http://www.w3.org/2000/svg" xmlns:xlink="http://www.w3.org/1999/xlink" x="0px" y="0px"
	 viewBox="0 0 1457.3 1457.1" style="enable-background:new 0 0 1457.3 1457.1;" xml:space="preserve">
<style type="text/css">
	.st0{fill:#45B3D4;}
	.st1{fill:url(#SVGID_1_);}
</style>
<g id="Calque_2">
</g>
<g id="Logo">
	<g>
		<path class="st0" d="M90.1,665c0,5.1-1.6,9.1-4.9,12c-3.3,2.9-7.2,4.4-11.6,4.4c-4.5,0-8.3-1.5-11.6-4.4c-3.3-2.9-4.9-6.9-4.9-12
			c0-5.1,1.6-9.1,4.9-12c3.3-2.9,7.2-4.4,11.6-4.4c4.5,0,8.3,1.5,11.6,4.4C88.5,655.9,90.1,659.9,90.1,665z M87.5,791H59.9v-97.7
			h27.7V791z"/>
		<path class="st0" d="M204.4,742.1c0,7.8-1.1,14.9-3.4,21.2c-2.3,6.3-5.6,11.7-9.9,16.2c-4.3,4.5-9.7,7.9-16,10.3
			c-6.3,2.4-13.5,3.6-21.6,3.6c-3.3,0-6.8-0.2-10.5-0.5c-3.7-0.3-7.2-0.7-10.8-1.2c-3.5-0.5-6.9-1.1-10.1-1.8
			c-3.2-0.7-6.1-1.4-8.5-2.1V651.2l27.7-4.5v48.7c3.1-1.4,6.3-2.4,9.7-3.2c3.3-0.7,6.9-1.1,10.8-1.1c6.9,0,13.1,1.2,18.4,3.6
			c5.3,2.4,9.8,5.9,13.4,10.3c3.6,4.5,6.3,9.8,8.2,16.1C203.5,727.4,204.4,734.4,204.4,742.1z M176.2,741.3
			c0-17.8-6.6-26.8-19.7-26.8c-2.8,0-5.7,0.4-8.5,1.1c-2.8,0.7-5,1.7-6.8,2.8v50.3c1.4,0.2,3.1,0.5,5.2,0.7c2.1,0.2,4.4,0.3,6.9,0.3
			c7.6,0,13.3-2.6,17.1-7.8C174.2,756.8,176.2,749.9,176.2,741.3z"/>
		<path class="st0" d="M309.2,787.6c-4.7,1.4-10.8,2.6-18.2,3.8c-7.4,1.2-15.2,1.8-23.4,1.8c-8.3,0-15.2-1.1-20.7-3.3
			c-5.5-2.2-9.9-5.4-13.1-9.4c-3.2-4-5.5-8.8-6.9-14.4c-1.4-5.6-2-11.7-2-18.4v-54.4h27.7v51.1c0,8.9,1.2,15.4,3.5,19.3
			c2.4,4,6.7,5.9,13.2,5.9c2,0,4.1-0.1,6.3-0.3c2.2-0.2,4.2-0.4,5.9-0.7v-75.4h27.7V787.6z"/>
		<path class="st0" d="M419.1,693.2c-5.6,18.8-11.4,36.5-17.5,52.9s-12.7,32.4-19.9,47.9c-2.6,5.6-5.2,10.3-7.8,14.2
			c-2.6,3.9-5.5,7.1-8.6,9.7c-3.1,2.5-6.6,4.4-10.5,5.6s-8.5,1.8-13.7,1.8c-4.3,0-8.3-0.4-12-1.2c-3.7-0.8-6.7-1.7-9-2.7l4.8-22.1
			c2.9,1,5.4,1.7,7.6,2c2.2,0.4,4.6,0.6,7.1,0.6c5,0,8.8-1.3,11.4-4c2.7-2.7,4.9-6.3,6.8-11.1c-6.3-12.4-12.6-26.3-19-41.7
			c-6.3-15.4-12.3-32.7-17.8-51.9h29.4c1.2,4.8,2.7,10.1,4.4,15.7c1.7,5.6,3.5,11.3,5.3,17.1c1.9,5.8,3.8,11.4,5.7,16.8
			c1.9,5.5,3.8,10.4,5.5,14.9c1.6-4.5,3.3-9.4,5-14.9c1.7-5.4,3.5-11.1,5.1-16.8c1.7-5.8,3.3-11.5,4.9-17.1c1.6-5.6,3-10.9,4.2-15.7
			H419.1z"/>
		<path class="st0" d="M426.6,742.8c0-8.7,1.3-16.3,4-22.8c2.7-6.5,6.2-11.9,10.5-16.3c4.3-4.3,9.3-7.6,15-9.8
			c5.6-2.2,11.4-3.3,17.4-3.3c13.9,0,24.8,4.2,32.9,12.7c8,8.5,12.1,21,12.1,37.4c0,1.6-0.1,3.4-0.2,5.3c-0.1,1.9-0.2,3.6-0.4,5.1
			H455c0.6,5.7,3.3,10.2,8,13.6c4.7,3.3,11,5,18.9,5c5.1,0,10.1-0.5,15-1.4c4.9-0.9,8.9-2.1,12-3.4l3.7,22.5
			c-1.5,0.7-3.5,1.5-5.9,2.2c-2.5,0.7-5.2,1.4-8.3,2c-3,0.6-6.3,1-9.8,1.4c-3.5,0.4-6.9,0.6-10.4,0.6c-8.8,0-16.4-1.3-22.9-3.9
			c-6.5-2.6-11.9-6.2-16.2-10.7c-4.3-4.5-7.4-9.9-9.5-16.1C427.6,756.7,426.6,750,426.6,742.8z M491.6,732.2
			c-0.1-2.4-0.5-4.6-1.2-6.9c-0.7-2.2-1.7-4.2-3.2-5.9c-1.4-1.7-3.2-3.2-5.4-4.3c-2.2-1.1-4.9-1.7-8.1-1.7c-3.1,0-5.8,0.5-8,1.6
			c-2.2,1.1-4.1,2.4-5.6,4.2c-1.5,1.7-2.6,3.7-3.4,6c-0.8,2.3-1.4,4.6-1.8,7H491.6z"/>
		<path class="st0" d="M598.6,717.8c-2.5-0.6-5.4-1.3-8.7-2c-3.3-0.7-6.9-1-10.8-1c-1.7,0-3.8,0.2-6.2,0.5c-2.4,0.3-4.2,0.7-5.5,1
			V791h-27.7v-92.5c5-1.7,10.8-3.4,17.6-4.9c6.7-1.5,14.3-2.3,22.6-2.3c1.5,0,3.3,0.1,5.4,0.3c2.1,0.2,4.2,0.4,6.3,0.7
			c2.1,0.3,4.2,0.7,6.3,1.1c2.1,0.4,3.9,1,5.4,1.6L598.6,717.8z"/>
		<path class="st0" d="M646.2,771.1c5.1,0,8.7-0.5,10.8-1.5c2.1-1,3.2-2.9,3.2-5.8c0-2.2-1.4-4.2-4.1-5.9c-2.7-1.7-6.9-3.6-12.4-5.7
			c-4.3-1.6-8.3-3.3-11.8-5c-3.5-1.7-6.5-3.8-9-6.2c-2.5-2.4-4.4-5.3-5.8-8.6c-1.4-3.3-2-7.4-2-12.1c0-9.2,3.4-16.4,10.2-21.7
			c6.8-5.3,16.2-8,28.1-8c5.9,0,11.6,0.5,17.1,1.6c5.4,1.1,9.8,2.2,13,3.4l-4.8,21.5c-3.2-1.1-6.7-2.1-10.5-3
			c-3.8-0.9-8-1.3-12.7-1.3c-8.7,0-13,2.4-13,7.2c0,1.1,0.2,2.1,0.6,3c0.4,0.9,1.1,1.7,2.2,2.5c1.1,0.8,2.6,1.7,4.6,2.6
			c1.9,0.9,4.4,2,7.3,3.1c6.1,2.3,11.1,4.5,15,6.6c4,2.2,7.1,4.5,9.4,7.1c2.3,2.5,3.9,5.3,4.8,8.4c0.9,3.1,1.4,6.7,1.4,10.7
			c0,9.6-3.6,16.9-10.9,21.9c-7.2,4.9-17.5,7.4-30.7,7.4c-8.7,0-15.9-0.7-21.6-2.2c-5.8-1.5-9.8-2.7-12-3.7l4.6-22.5
			c4.7,1.9,9.5,3.3,14.5,4.4C636.4,770.5,641.3,771.1,646.2,771.1z"/>
		<path class="st0" d="M708.2,791V651.2l27.7-4.5v46.8c1.9-0.6,4.2-1.2,7.2-1.8c2.9-0.6,5.7-0.8,8.5-0.8c7.9,0,14.5,1.1,19.8,3.3
			c5.3,2.2,9.5,5.2,12.6,9.2c3.2,4,5.4,8.7,6.7,14.1c1.3,5.5,2,11.5,2,18.2V791h-27.7v-51.8c0-8.9-1.1-15.2-3.4-18.9
			c-2.3-3.7-6.5-5.6-12.7-5.6c-2.5,0-4.8,0.2-7,0.7c-2.2,0.4-4.1,0.9-5.9,1.4V791H708.2z"/>
		<path class="st0" d="M909,741.9c0,7.7-1.1,14.7-3.3,21.1c-2.2,6.4-5.5,11.8-9.7,16.3c-4.2,4.5-9.3,8-15.1,10.5
			c-5.9,2.5-12.5,3.7-19.8,3.7c-7.2,0-13.7-1.2-19.6-3.7c-5.9-2.5-10.9-6-15.1-10.5c-4.2-4.5-7.5-10-9.8-16.3
			c-2.4-6.4-3.5-13.4-3.5-21.1c0-7.7,1.2-14.7,3.6-21c2.4-6.3,5.8-11.7,10-16.2c4.3-4.5,9.3-7.9,15.2-10.4
			c5.9-2.5,12.3-3.7,19.2-3.7c7.1,0,13.5,1.2,19.4,3.7c5.9,2.5,10.9,5.9,15.1,10.4c4.2,4.5,7.5,9.8,9.8,16.2
			C907.9,727.2,909,734.2,909,741.9z M880.8,741.9c0-8.5-1.7-15.3-5.1-20.2c-3.4-4.9-8.3-7.3-14.6-7.3c-6.3,0-11.2,2.4-14.7,7.3
			c-3.5,4.9-5.2,11.6-5.2,20.2c0,8.5,1.7,15.3,5.2,20.3c3.5,5,8.4,7.5,14.7,7.5c6.3,0,11.2-2.5,14.6-7.5
			C879.1,757.2,880.8,750.5,880.8,741.9z"/>
		<path class="st0" d="M1021.3,742.1c0,7.6-0.9,14.4-2.8,20.6c-1.9,6.2-4.6,11.5-8.2,16c-3.6,4.5-8.1,7.9-13.4,10.4
			c-5.3,2.5-11.5,3.7-18.4,3.7c-3.8,0-7.4-0.4-10.8-1.1c-3.3-0.7-6.6-1.8-9.7-3.2v36.8h-27.7V696.6c2.5-0.7,5.3-1.5,8.5-2.1
			c3.2-0.7,6.6-1.3,10.1-1.8c3.5-0.5,7.1-0.9,10.8-1.2c3.7-0.3,7.2-0.5,10.5-0.5c8,0,15.2,1.2,21.6,3.6c6.3,2.4,11.6,5.8,16,10.2
			c4.3,4.4,7.6,9.8,9.9,16.1C1020.1,727.2,1021.3,734.3,1021.3,742.1z M993,742.8c0-8.5-1.9-15.4-5.8-20.5
			c-3.8-5.1-9.5-7.7-17.1-7.7c-2.5,0-4.8,0.1-6.9,0.3c-2.1,0.2-3.8,0.4-5.2,0.7v50c1.7,1.1,4,2,6.8,2.8c2.8,0.7,5.6,1.1,8.5,1.1
			C986.4,769.4,993,760.5,993,742.8z"/>
		<path class="st0" d="M1064.2,776.3c0,5.6-1.8,9.8-5.3,12.7c-3.5,2.9-7.5,4.4-12,4.4s-8.5-1.5-12-4.4c-3.5-2.9-5.3-7.2-5.3-12.7
			c0-5.6,1.8-9.8,5.3-12.7c3.5-2.9,7.5-4.4,12-4.4s8.5,1.5,12,4.4C1062.4,766.5,1064.2,770.7,1064.2,776.3z"/>
		<path class="st0" d="M1072.5,742.1c0-7.1,1.1-13.7,3.4-20c2.3-6.3,5.6-11.7,9.9-16.3c4.3-4.6,9.6-8.3,15.8-11.1
			c6.2-2.7,13.3-4.1,21.2-4.1c5.2,0,10,0.5,14.3,1.4c4.3,0.9,8.5,2.3,12.6,4l-5.8,22.1c-2.6-1-5.5-1.9-8.5-2.6
			c-3.1-0.7-6.6-1.1-10.4-1.1c-8.2,0-14.3,2.5-18.3,7.6c-4,5.1-6,11.8-6,20.1c0,8.8,1.9,15.6,5.7,20.4c3.8,4.8,10.4,7.2,19.8,7.2
			c3.3,0,6.9-0.3,10.8-0.9c3.8-0.6,7.4-1.6,10.6-3l3.9,22.7c-3.2,1.4-7.2,2.5-12.1,3.5c-4.8,1-10.2,1.5-16,1.5c-8.9,0-16.6-1.3-23-4
			c-6.4-2.7-11.7-6.3-15.9-10.9c-4.2-4.6-7.2-10-9.1-16.3C1073.5,756.2,1072.5,749.4,1072.5,742.1z"/>
		<path class="st0" d="M1256.8,741.9c0,7.7-1.1,14.7-3.3,21.1c-2.2,6.4-5.5,11.8-9.7,16.3c-4.2,4.5-9.3,8-15.1,10.5
			c-5.9,2.5-12.5,3.7-19.8,3.7c-7.2,0-13.7-1.2-19.6-3.7c-5.9-2.5-10.9-6-15.1-10.5c-4.2-4.5-7.5-10-9.8-16.3
			c-2.4-6.4-3.5-13.4-3.5-21.1c0-7.7,1.2-14.7,3.6-21c2.4-6.3,5.8-11.7,10-16.2c4.3-4.5,9.3-7.9,15.2-10.4
			c5.9-2.5,12.3-3.7,19.2-3.7c7.1,0,13.5,1.2,19.4,3.7c5.9,2.5,10.9,5.9,15.1,10.4c4.2,4.5,7.5,9.8,9.8,16.2
			C1255.6,727.2,1256.8,734.2,1256.8,741.9z M1228.6,741.9c0-8.5-1.7-15.3-5.1-20.2c-3.4-4.9-8.3-7.3-14.6-7.3
			c-6.3,0-11.2,2.4-14.7,7.3c-3.5,4.9-5.2,11.6-5.2,20.2c0,8.5,1.7,15.3,5.2,20.3c3.5,5,8.4,7.5,14.7,7.5c6.3,0,11.2-2.5,14.6-7.5
			C1226.9,757.2,1228.6,750.5,1228.6,741.9z"/>
		<path class="st0" d="M1331.9,739.1c0-8.9-1.1-15.2-3.4-18.9c-2.3-3.7-6.2-5.6-11.8-5.6c-1.7,0-3.5,0.1-5.4,0.3
			c-1.9,0.2-3.7,0.4-5.4,0.7V791h-27.7v-94.4c2.4-0.6,5.1-1.3,8.3-2c3.2-0.7,6.5-1.3,10-1.9c3.5-0.6,7.2-1,10.9-1.3
			c3.7-0.3,7.4-0.5,11-0.5c7.1,0,12.8,0.9,17.2,2.7c4.4,1.8,8,3.9,10.9,6.4c4-2.8,8.5-5.1,13.7-6.7c5.1-1.6,9.9-2.4,14.2-2.4
			c7.8,0,14.2,1.1,19.2,3.3c5,2.2,9,5.2,12,9.2c3,4,5,8.7,6.1,14.1c1.1,5.5,1.7,11.5,1.7,18.2V791h-27.7v-51.8
			c0-8.9-1.1-15.2-3.4-18.9c-2.3-3.7-6.2-5.6-11.8-5.6c-1.5,0-3.6,0.4-6.2,1.1c-2.7,0.7-4.9,1.7-6.6,2.8c0.9,2.8,1.4,5.9,1.7,9
			c0.2,3.2,0.4,6.5,0.4,10.1V791h-27.7V739.1z"/>
	</g>
	<g>
		<linearGradient id="SVGID_1_" gradientUnits="userSpaceOnUse" x1="5.086" y1="726.1321" x2="1457.35" y2="726.1321">
			<stop  offset="0" style="stop-color:#4A90D0"/>
			<stop  offset="1" style="stop-color:#45B3D4"/>
		</linearGradient>
		<path class="st1" d="M731.2,14c96.1,0,189.4,18.8,277.2,56c42.2,17.8,82.9,39.9,121,65.7c37.7,25.5,73.2,54.7,105.4,87
			c32.2,32.2,61.5,67.7,87,105.4c25.7,38.1,47.8,78.8,65.7,121c37.1,87.8,56,181,56,277.2c0,96.1-18.8,189.4-56,277.2
			c-17.8,42.2-39.9,82.9-65.7,121c-25.5,37.7-54.7,73.2-87,105.4s-67.7,61.5-105.4,87c-38.1,25.7-78.8,47.8-121,65.7
			c-87.8,37.1-181,56-277.2,56s-189.4-18.8-277.2-56c-42.2-17.8-82.9-39.9-121-65.7c-37.7-25.5-73.2-54.7-105.4-87
			c-32.2-32.2-61.5-67.7-87-105.4c-25.7-38.1-47.8-78.8-65.7-121c-37.1-87.8-56-181-56-277.2c0-96.1,18.8-189.4,56-277.2
			c17.8-42.2,39.9-82.9,65.7-121c25.5-37.7,54.7-73.2,87-105.4c32.2-32.2,67.7-61.5,105.4-87c38.1-25.7,78.8-47.8,121-65.7
			C541.8,32.8,635.1,14,731.2,14 M731.2,0C330.2,0,5.1,325.1,5.1,726.1s325.1,726.1,726.1,726.1s726.1-325.1,726.1-726.1
			S1132.2,0,731.2,0L731.2,0z"/>
	</g>
</g>
</svg>
